PathFileType	4	(X/Y/Z)	/Users/itak/Documents/Research/Walk-IL/dataset/trc/00244_00009.trc
DataRate	CameraRate	NumFrames	NumMarkers	Units	OrigDataRate	OrigDataStartFrame	OrigNumFrames
100.000000	100.000000	4	53	mm	100.000000	107	858
Frame#	Time	RPSI			LPSI			L3			STRN			T10			C7			CLAV			RBAK			LBAK			LSHO			LUPA			LAEL			LAOL			LWTS			LWPS			LFRA			LIFD			LHPS			LHTS			RSHO			RUPA			RAEL			RAOL			RWTS			RWPS			RFRA			RIFD			RHTS			RHPS			RBHD			LFHD			RFHD			LBHD			LHIP			RHIP			RASI			LASI			LKNE			LTHI			LANK			LTIP			LTOE			LMT1			LMT5			LHEE			RKNE			RTHI			RANK			RTIP			RTOE			RMT1			RMT5			RHEE			
		X1	Y1	Z1	X2	Y2	Z2	X3	Y3	Z3	X4	Y4	Z4	X5	Y5	Z5	X6	Y6	Z6	X7	Y7	Z7	X8	Y8	Z8	X9	Y9	Z9	X10	Y10	Z10	X11	Y11	Z11	X12	Y12	Z12	X13	Y13	Z13	X14	Y14	Z14	X15	Y15	Z15	X16	Y16	Z16	X17	Y17	Z17	X18	Y18	Z18	X19	Y19	Z19	X20	Y20	Z20	X21	Y21	Z21	X22	Y22	Z22	X23	Y23	Z23	X24	Y24	Z24	X25	Y25	Z25	X26	Y26	Z26	X27	Y27	Z27	X28	Y28	Z28	X29	Y29	Z29	X30	Y30	Z30	X31	Y31	Z31	X32	Y32	Z32	X33	Y33	Z33	X34	Y34	Z34	X35	Y35	Z35	X36	Y36	Z36	X37	Y37	Z37	X38	Y38	Z38	X39	Y39	Z39	X40	Y40	Z40	X41	Y41	Z41	X42	Y42	Z42	X43	Y43	Z43	X44	Y44	Z44	X45	Y45	Z45	X46	Y46	Z46	X47	Y47	Z47	X48	Y48	Z48	X49	Y49	Z49	X50	Y50	Z50	X51	Y51	Z51	X52	Y52	Z52	X53	Y53	Z53	

108	1.07	360.6478576660156	1048.138061523438	750.2999267578125	358.0271301269531	1052.118774414062	871.001220703125	367.9367065429688	1127.98291015625	829.103515625	124.5813064575195	1315.611328125	833.6534423828125	374.1996459960938	1254.633911132812	824.5227661132812	316.8613891601562	1517.060424804688	830.0778198242188	150.119873046875	1433.251831054688	831.1632080078125	391.020751953125	1377.492431640625	756.3744506835938	338.6092224121094	1479.022338867188	940.4855346679688	250.0384521484375	1481.454833984375	997.5914916992188	278.5807800292969	1361.749389648438	1075.608276367188	255.4481658935547	1150.763427734375	1100.768188476562	328.9473266601562	1133.584350585938	1056.624877929688	166.1987762451172	916.9873657226562	1034.24658203125	186.1670379638672	900.64892578125	1116.09423828125	230.6548461914062	1043.746459960938	1112.151977539062	154.4565582275391	722.9874877929688	1045.267211914062	166.5384063720703	814.5858764648438	1112.346801757812	127.999885559082	817.8390502929688	1055.785400390625	255.8352661132812	1476.088745117188	661.6751098632812	274.9465942382812	1410.778686523438	595.020751953125	297.3456726074219	1130.380004882812	556.3897094726562	334.1951904296875	1124.002075195312	643.7835083007812	167.460205078125	916.0410766601562	608.6937866210938	210.7562255859375	903.827880859375	536.7433471679688	270.8480529785156	1062.6259765625	544.3953247070312	136.4975128173828	738.102294921875	609.9613647460938	108.048713684082	808.3300170898438	586.2323608398438	155.6324005126953	804.0044555664062	530.5046997070312	285.2468872070312	1664.7509765625	782.0779418945312	84.07138824462891	1730.380859375	865.407958984375	89.52288818359375	1727.781860351562	765.5753784179688	234.5902557373047	1678.7236328125	911.8165283203125	255.9244232177734	987.9649047851562	1010.691040039062	261.2090148925781	1009.823547363281	643.172607421875	166.4424591064453	1052.848022460938	681.1053466796875	156.0755157470703	1029.659057617188	961.8401489257812	229.6087188720703	503.3210144042969	951.8646850585938	228.0062408447266	645.853271484375	987.728515625	297.4420471191406	33.36514282226562	912.584716796875	273.2039184570312	280.8093566894531	943.7479248046875	79.69598388671875	45.79706954956055	865.854248046875	145.2515411376953	44.06406402587891	818.6381225585938	169.4315795898438	34.81634521484375	933.787109375	355.8989868164062	40.70145416259766	856.9571533203125	198.7347412109375	519.4739990234375	675.568115234375	196.1416168212891	786.2273559570312	632.0657958984375	291.0835876464844	39.20281982421875	678.0184936523438	194.5527954101562	397.0854187011719	693.4151000976562	94.13450622558594	44.09846878051758	765.165283203125	160.4859008789062	37.06240081787109	794.7664184570312	177.3653564453125	40.15682220458984	677.446533203125	364.7846374511719	34.07800674438477	721.3223876953125	
109	1.08	360.2681274414062	1048.158081054688	749.69287109375	357.646728515625	1052.183227539062	870.400146484375	367.5374450683594	1128.053588867188	828.4890747070312	124.1189498901367	1315.587280273438	833.090087890625	373.7294616699219	1254.7158203125	823.8890991210938	316.2594909667969	1517.1103515625	829.409423828125	149.5627288818359	1433.168701171875	830.5616455078125	390.5113525390625	1377.565551757812	755.7238159179688	338.0331115722656	1479.087890625	939.8262939453125	249.5101623535156	1481.50390625	996.9403076171875	278.1005249023438	1361.803833007812	1074.980102539062	254.9830322265625	1150.813598632812	1100.137939453125	328.4634399414062	1133.620483398438	1056.037719726562	165.4343719482422	917.172607421875	1033.436157226562	185.4808959960938	900.7626953125	1115.257202148438	230.0186614990234	1043.798583984375	1111.471435546875	153.4167175292969	723.281005859375	1044.25537109375	165.7974853515625	814.7695922851562	1111.563110351562	127.0576705932617	818.2640380859375	1054.908935546875	255.2429351806641	1476.066650390625	661.0291137695312	274.3094787597656	1410.7451171875	594.4136352539062	296.9148559570312	1130.366333007812	555.8092041015625	333.7731018066406	1124.023803710938	643.1974487304688	167.3326416015625	915.8710327148438	608.321044921875	210.4638061523438	903.75	536.2342529296875	270.4619445800781	1062.595825195312	543.837890625	136.4707183837891	738.059814453125	609.5889892578125	107.8593597412109	808.2377319335938	585.7719116210938	155.3842620849609	803.9002685546875	530.0274047851562	284.5482482910156	1664.7734375	781.4274291992188	83.45868682861328	1730.302368164062	864.7048950195312	88.81632232666016	1727.691772460938	764.89404296875	233.8722381591797	1678.7490234375	911.1638793945312	255.5473480224609	988.0508422851562	1010.140625	260.7477416992188	1009.765441894531	642.5960083007812	166.0335388183594	1052.813232421875	680.59814453125	155.7288818359375	1029.638061523438	961.3085327148438	229.4781799316406	503.4081420898438	951.6004028320312	227.8317108154297	645.9551391601562	987.3733520507812	297.4772338867188	33.36217880249023	912.6175537109375	273.1275329589844	280.8750610351562	943.617919921875	79.81226348876953	45.93914413452148	865.974365234375	145.2822265625	44.18452072143555	818.7364501953125	169.4560546875	34.79663467407227	933.810302734375	355.9299926757812	40.66743850708008	856.9912109375	198.3369903564453	519.3753662109375	675.3409423828125	195.7590179443359	786.1049194335938	631.6573486328125	291.0788269042969	39.20613479614258	678.0219116210938	194.2888641357422	396.960693359375	693.2791137695312	94.11703491210938	44.14055633544922	765.105224609375	160.5216217041016	37.03086090087891	794.824951171875	177.3611907958984	40.15996170043945	677.44677734375	364.7659912109375	34.10055541992188	721.3282470703125	
110	1.09	359.8739013671875	1048.166748046875	749.0616455078125	357.2483825683594	1052.243896484375	869.7716064453125	367.1238708496094	1128.1162109375	827.8436279296875	123.6493453979492	1315.555786132812	832.4929809570312	373.2252807617188	1254.789794921875	823.2296142578125	315.6201171875	1517.15234375	828.7172241210938	148.9920654296875	1433.076538085938	829.9401245117188	389.9775695800781	1377.636108398438	755.0406494140625	337.4386596679688	1479.14501953125	939.1341552734375	248.9522399902344	1481.548583984375	996.2553100585938	277.5978698730469	1361.855102539062	1074.321655273438	254.5280914306641	1150.859497070312	1099.48291015625	327.9855651855469	1133.660522460938	1055.420776367188	164.6880645751953	917.3533325195312	1032.607177734375	184.7907257080078	900.8726806640625	1114.4072265625	229.3842315673828	1043.845336914062	1110.7666015625	152.4095306396484	723.5388793945312	1043.209106445312	165.0969543457031	814.9331665039062	1110.724487304688	126.0963363647461	818.676513671875	1054.028198242188	254.6289520263672	1476.03955078125	660.3457641601562	273.6592712402344	1410.708740234375	593.7695922851562	296.466064453125	1130.348266601562	555.1980590820312	333.3298034667969	1124.041870117188	642.5872802734375	167.1511535644531	915.72314453125	607.8661499023438	210.1698455810547	903.6620483398438	535.6915893554688	270.076904296875	1062.557495117188	543.2476806640625	136.3744812011719	738.0173950195312	609.1571655273438	107.658576965332	808.1370239257812	585.2894287109375	155.1183471679688	803.796630859375	529.4976196289062	283.8281860351562	1664.786987304688	780.748779296875	82.83465576171875	1730.22265625	863.9647216796875	88.10709381103516	1727.59033203125	764.1653442382812	233.1471252441406	1678.7646484375	910.475341796875	255.1675720214844	988.1349487304688	1009.560974121094	260.2862854003906	1009.693176269531	641.9920654296875	165.612060546875	1052.76171875	680.0620727539062	155.3608703613281	1029.615600585938	960.7225952148438	229.3586273193359	503.486572265625	951.3220825195312	227.6401214599609	646.0590209960938	986.9955444335938	297.5080261230469	33.36364364624023	912.646484375	273.0684509277344	280.9315490722656	943.46826171875	79.93537139892578	46.07944488525391	866.082763671875	145.3041687011719	44.30243682861328	818.8169555664062	169.4848327636719	34.77682876586914	933.8366088867188	355.956787109375	40.63701248168945	857.0216674804688	197.9312744140625	519.2686767578125	675.1046752929688	195.3449401855469	785.9674072265625	631.2257690429688	291.0782470703125	39.20483016967773	678.0255126953125	193.9998779296875	396.8260803222656	693.1355590820312	94.10048675537109	44.18409729003906	765.0443115234375	160.5659027099609	36.98671340942383	794.8988037109375	177.3583374023438	40.1624641418457	677.4461669921875	364.7496948242188	34.10726928710938	721.3375244140625	
111	1.1	359.4565124511719	1048.164306640625	748.4029541015625	356.8365173339844	1052.301025390625	869.11279296875	366.6973571777344	1128.17333984375	827.1651000976562	123.1677169799805	1315.510498046875	831.8618774414062	372.6861877441406	1254.855102539062	822.5440063476562	314.9432373046875	1517.187133789062	828.0011596679688	148.4061889648438	1432.979614257812	829.2884521484375	389.4186706542969	1377.704711914062	754.3251953125	336.8257446289062	1479.194213867188	938.4093017578125	248.3607330322266	1481.58251953125	995.5387573242188	277.0759887695312	1361.902587890625	1073.632202148438	254.0748443603516	1150.903076171875	1098.803955078125	327.5143432617188	1133.705200195312	1054.771606445312	163.9501953125	917.5284423828125	1031.763549804688	184.0957489013672	900.9751586914062	1113.545532226562	228.7586212158203	1043.885986328125	1110.037963867188	151.4493560791016	723.751708984375	1042.1328125	164.4241333007812	815.0767822265625	1109.838134765625	125.1231460571289	819.06201171875	1053.145874023438	253.9904327392578	1476.006225585938	659.6260986328125	273.0044555664062	1410.66650390625	593.0866088867188	296.0006713867188	1130.324951171875	554.5574951171875	332.8622436523438	1124.055297851562	641.9508666992188	166.9329833984375	915.5910034179688	607.3416748046875	209.8725280761719	903.5661010742188	535.1126708984375	269.6913452148438	1062.510131835938	542.62451171875	136.2017211914062	737.9764404296875	608.6670532226562	107.4645309448242	808.021728515625	584.7939453125	154.8385314941406	803.69189453125	528.9161376953125	283.0892639160156	1664.79150390625	780.041015625	82.19051361083984	1730.147705078125	863.1815795898438	87.3951416015625	1727.4833984375	763.3883056640625	232.4101409912109	1678.771850585938	909.7503051757812	254.7864532470703	988.2202758789062	1008.950744628906	259.8312072753906	1009.608032226562	641.359619140625	165.1753387451172	1052.68896484375	679.4907836914062	154.9855651855469	1029.5927734375	960.0941162109375	229.2490997314453	503.554931640625	951.0303955078125	227.4305725097656	646.16162109375	986.596435546875	297.5341796875	33.36855697631836	912.6720581054688	273.0327453613281	280.9867248535156	943.3086547851562	80.05973815917969	46.21492385864258	866.1776123046875	145.3191680908203	44.41091537475586	818.88623046875	169.5167694091797	34.75634002685547	933.86572265625	355.9786071777344	40.60844421386719	857.0478515625	197.5222625732422	519.1533813476562	674.8565063476562	194.9111633300781	785.8197021484375	630.7721557617188	291.0826110839844	39.19900131225586	678.02880859375	193.6803588867188	396.6854858398438	692.980224609375	94.087646484375	44.22315216064453	764.991455078125	160.6107788085938	36.94295120239258	794.9708862304688	177.3560638427734	40.16533660888672	677.446044921875	364.7376403808594	34.09905624389648	721.3492431640625	
